<svg width="81" height="82" viewBox="0 0 81 82" fill="none" xmlns="http://www.w3.org/2000/svg">
<path d="M31.0118 32.5316C31.0118 34.3531 32.2505 35.9352 34.02 36.3724L37.3819 37.2155V28.5659H34.9879C32.8021 28.5659 31.0223 30.3458 31.0223 32.5316H31.0118Z" fill="#478BF9"/>
<path d="M43.7292 54.0046H46.1233C48.3091 54.0046 50.089 52.2247 50.089 50.0389C50.089 48.2174 48.8503 46.6352 47.0808 46.1981L43.7189 45.355V54.0046H43.7292Z" fill="#478BF9"/>
<path d="M40.5562 0.962158C18.3234 0.962158 0.222778 19.0524 0.222778 41.2956C0.222778 63.5389 18.313 81.6291 40.5562 81.6291C62.7995 81.6291 80.8897 63.5389 80.8897 41.2956C80.8897 19.0524 62.7995 0.962158 40.5562 0.962158ZM56.4607 34.9255H50.1009V31.7405C50.1009 29.9918 48.675 28.5555 46.9159 28.5555H43.7309V38.7976L48.6334 40.0258C53.234 41.1812 56.4502 45.2926 56.4502 50.0389C56.4502 55.7324 51.8184 60.3642 46.1249 60.3642H43.7309V68.4205H37.3712V60.3642H34.1862C28.9194 60.3642 24.6415 56.0863 24.6415 50.8195V47.6345H31.0011V50.8195C31.0011 52.5682 32.4271 54.0046 34.1862 54.0046H37.3712V43.7625L32.4687 42.5342C27.8681 41.3789 24.6519 37.2675 24.6519 32.5211C24.6519 26.8276 29.2837 22.1958 34.9772 22.1958H37.3712V14.1395H43.7309V22.1958H46.9159C52.1827 22.1958 56.4607 26.4737 56.4607 31.7405V34.9255Z" fill="#478BF9"/>
</svg>
