<svg width="98" height="98" viewBox="0 0 98 98" fill="none" xmlns="http://www.w3.org/2000/svg">
<path d="M97.1434 47.2644H75.4414V51.5423H97.1434V47.2644Z" fill="#478BF9"/>
<path d="M22.4207 47.2644H0.718628V51.5423H22.4207V47.2644Z" fill="#478BF9"/>
<path d="M51.4107 76.2419H47.1328V97.944H51.4107V76.2419Z" fill="#478BF9"/>
<path d="M51.4107 0.862549H47.1328V22.5645H51.4107V0.862549Z" fill="#478BF9"/>
<path d="M74.7859 22.2522C59.9432 7.40944 35.868 7.40944 21.0148 22.2522C6.17213 37.0949 6.17213 61.1701 21.0148 76.0232C35.8576 90.8659 59.9328 90.8659 74.7859 76.0232C89.6286 61.1805 89.6286 37.1053 74.7859 22.2522ZM55.2489 25.4684C59.5789 26.8112 63.4613 29.3196 66.4798 32.7337L67.0626 33.3894L66.2092 33.5872C63.9505 34.118 61.5357 34.5552 59.0376 34.8778L58.5901 34.9403L58.4652 34.5031C58.0488 33.0772 57.5596 31.7032 56.9975 30.4333C56.3001 28.8408 55.5195 27.446 54.666 26.2699L53.7292 24.9896L55.2489 25.458V25.4684ZM37.8768 47.9511L37.8977 47.4098C38.0018 44.1207 38.3661 40.9773 38.9906 38.0837L39.0843 37.6257L39.5526 37.6673C45.0276 38.1461 50.8773 38.1253 56.321 37.6153L56.7893 37.5737L56.8934 38.0317C57.5284 40.9565 57.8927 44.1103 57.9863 47.4098V47.9511H37.8873H37.8768ZM57.9863 50.3659V50.9072C57.8718 54.2067 57.5075 57.3605 56.8726 60.2853L56.7685 60.7433L56.3001 60.7017C50.8564 60.1916 45.0068 60.1812 39.5319 60.6496L39.0634 60.6912L38.9697 60.2333C38.3452 57.3396 37.9809 54.2067 37.8768 50.9072L37.856 50.3659H57.9655H57.9863ZM47.9316 24.5629C50.9605 24.5629 54.0415 28.4036 55.9671 34.5968L56.1648 35.2213L55.5091 35.2734C52.9486 35.4919 50.3048 35.6064 47.6506 35.6064C45.1837 35.6064 42.7273 35.5127 40.3333 35.315L39.6775 35.2629L39.8753 34.628C41.8009 28.4141 44.8923 24.5525 47.9316 24.5525V24.5629ZM29.2793 32.8481C32.3186 29.3821 36.2323 26.832 40.6143 25.4789L42.1444 25.0105L41.1972 26.3011C40.3437 27.4669 39.5527 28.872 38.8657 30.4542C38.314 31.7032 37.8144 33.0979 37.3773 34.5968L37.2524 35.0236L36.8048 34.9715C34.2859 34.6593 31.8503 34.2429 29.5604 33.7121L28.6964 33.5143L29.2793 32.8481ZM23.2007 47.389C23.4921 43.3297 24.7932 39.3744 26.9686 35.9291L27.1768 35.6064L27.5515 35.7001C30.2161 36.3767 33.0889 36.9179 36.1074 37.3031L36.6695 37.3759L36.5549 37.938C35.9304 40.9565 35.5766 44.1519 35.4829 47.4411V47.9511H23.1694L23.2111 47.389H23.2007ZM27.1768 62.7105L26.9686 62.3878C24.7932 58.953 23.4921 54.9873 23.2007 50.9279L23.159 50.3659H35.462V50.8759C35.5661 54.165 35.9305 57.3709 36.5446 60.379L36.6591 60.941L36.097 61.0139C33.0889 61.399 30.2057 61.9403 27.5411 62.6169L27.1664 62.7105H27.1768ZM40.6143 72.8485C36.2323 71.4954 32.3186 68.9453 29.2793 65.4792L28.6964 64.8131L29.5604 64.6153C31.8503 64.0949 34.2859 63.6681 36.8048 63.3558L37.2524 63.3038L37.3773 63.7306C37.8144 65.2294 38.314 66.6242 38.8657 67.8732C39.5631 69.4657 40.3437 70.8605 41.1972 72.0367L42.1444 73.3273L40.6143 72.8589V72.8485ZM47.9316 73.7541C44.8923 73.7541 41.8009 69.8925 39.8753 63.6785L39.6775 63.0436L40.3333 62.9916C45.2982 62.596 50.5858 62.6064 55.5091 63.0332L56.1648 63.0852L55.9671 63.7098C54.0311 69.8925 50.9501 73.7437 47.9316 73.7437V73.7541ZM66.4798 65.5833C63.4613 68.9973 59.5684 71.5058 55.2489 72.8485L53.7292 73.3169L54.666 72.0367C55.5195 70.8709 56.3001 69.4657 56.9975 67.8732C57.5492 66.593 58.0488 65.2294 58.4652 63.8034L58.5901 63.3663L59.0376 63.4287C61.5357 63.7514 63.9505 64.1885 66.2092 64.7194L67.0626 64.9276L66.4798 65.5833ZM72.6521 50.9279C72.3607 55.0289 71.0388 59.0363 68.8113 62.5127L68.6032 62.8354L68.2285 62.7418C65.5951 62.0444 62.7327 61.4927 59.735 61.0868L59.1729 61.0139L59.2874 60.4623C59.9119 57.4438 60.2762 54.2275 60.3699 50.8863V50.3763H72.6833L72.6417 50.9383L72.6521 50.9279ZM60.3907 47.9511V47.4411C60.2866 44.0999 59.9224 40.8732 59.2978 37.8651L59.1834 37.3135L59.7454 37.2406C62.7431 36.8347 65.595 36.283 68.2388 35.5856L68.6136 35.492L68.8217 35.8146C71.0491 39.2911 72.3815 43.288 72.6625 47.3994L72.7042 47.9615H60.4011L60.3907 47.9511Z" fill="#478BF9"/>
</svg>
